Coordinates
version=1
nRows=7
nColumns=63
inDegrees=yes

Units are S.I. units (second, meters, Newtons, ...)
If the header above contains a line with 'inDegrees', this indicates whether rotational values are in degrees (yes) or radians (no).

endheader
time	pelvis_tilt	pelvis_list	pelvis_rotation	pelvis_tx	pelvis_ty	pelvis_tz	hip_flexion_r	hip_adduction_r	hip_rotation_r	knee_angle_r	knee_angle_r_beta	ankle_angle_r	subtalar_angle_r	mtp_angle_r	hip_flexion_l	hip_adduction_l	hip_rotation_l	knee_angle_l	knee_angle_l_beta	ankle_angle_l	subtalar_angle_l	mtp_angle_l	L5_S1_Flex_Ext	L5_S1_Lat_Bending	L5_S1_axial_rotation	L4_L5_Flex_Ext	L4_L5_Lat_Bending	L4_L5_axial_rotation	L3_L4_Flex_Ext	L3_L4_Lat_Bending	L3_L4_axial_rotation	L2_L3_Flex_Ext	L2_L3_Lat_Bending	L2_L3_axial_rotation	L1_L2_Flex_Ext	L1_L2_Lat_Bending	L1_L2_axial_rotation	L1_T12_Flex_Ext	L1_T12_Lat_Bending	L1_T12_axial_rotation	Abs_r3	Abs_r2	Abs_r1	Abs_t1	Abs_t2	neck_flexion	neck_bending	neck_rotation	arm_flex_r	arm_add_r	arm_rot_r	elbow_flex_r	pro_sup_r	wrist_flex_r	wrist_dev_r	arm_flex_l	arm_add_l	arm_rot_l	elbow_flex_l	pro_sup_l	wrist_flex_l	wrist_dev_l
      0.00800000	    -62.59620645	     -2.97532081	     -2.47525859	     -0.32432008	      1.13832118	      0.05844903	    124.22869706	     -5.10940065	     -5.21162913	     94.53781775	      1.64999619	     17.03937593	    -13.38829415	      0.00000000	     91.75219765	    -11.55159825	     -4.70534500	     50.78027817	      0.88628305	      2.52862292	      6.11982555	      0.00000000	     -0.09852704	      0.82837367	      0.42329127	     -0.18297456	      1.10173699	      0.44974697	     -0.16187007	      2.01410775	      0.44974697	     -0.11260655	      2.01410775	      0.37037986	     -0.09149221	      1.68921960	      0.34392415	     -0.05629835	      1.28315082	      0.31746845	     -0.70376877	      9.37072868	      2.35421903	      0.00000000	      0.00000000	      0.00000000	      0.00000000	      0.00000001	     69.51321559	     -7.40223232	      4.22714712	     41.48358761	     57.74502502	      0.00000000	      4.57352324	     65.78397114	     -6.70559364	     -1.17764258	     41.50645267	     56.66907627	      0.00000000	      4.57352324
      0.01700000	    -62.77322791	     -3.83681419	     -2.27854490	     -0.32582130	      1.13936290	      0.05745713	    123.45963815	     -5.73405614	     -6.33605608	     91.62835708	      1.59921652	     16.86773846	    -13.81082944	      0.00000000	     93.02829352	    -11.25188808	     -2.30936519	     54.36344877	      0.94882117	      4.41874019	      8.71892699	      0.00000000	     -0.10050772	      0.98138018	      0.42363452	     -0.18665288	      1.30523563	      0.45011168	     -0.16512413	      2.38612776	      0.45011168	     -0.11487027	      2.38612776	      0.37068021	     -0.09333147	      2.00123046	      0.34420305	     -0.05743011	      1.52015789	      0.31772589	     -0.71791658	     11.10156883	      2.35612813	      0.00000000	      0.00000000	      0.00000000	      0.00000000	      0.00000001	     70.15713457	     -7.84851055	      5.85411020	     41.49679301	     58.09657205	      0.00000000	      4.58690104	     65.46910648	     -6.66541743	     -1.65580673	     41.78479853	     56.75807939	      0.00000000	      4.58690104
      0.02500000	    -62.74300677	     -3.83437790	     -2.04740130	     -0.32579773	      1.13942074	      0.05710209	    123.17086419	     -5.86365433	     -6.29592517	     90.73450698	      1.58361589	     16.75804493	    -13.99160024	      0.00000000	     93.35742714	    -11.07143734	     -2.08501079	     55.57247291	      0.96992263	      5.06482156	      9.53978543	      0.00000000	     -0.10093392	      0.97906537	      0.39096548	     -0.18744438	      1.30215695	      0.41540082	     -0.16582433	      2.38049955	      0.41540082	     -0.11535737	      2.38049955	      0.34209479	     -0.09372724	      1.99651011	      0.31765945	     -0.05767364	      1.51657226	      0.29322411	     -0.72096088	     11.07538332	      2.17443269	      0.00000000	      0.00000000	      0.00000000	      0.00000000	      0.00000001	     70.19191398	     -8.09267281	      6.43404739	     41.48648239	     58.15366462	      0.00000000	      4.60597823	     65.41069487	     -6.49465748	     -2.15750348	     41.78591424	     56.69693172	      0.00000000	      4.60597823
      0.03300000	    -62.71984249	     -3.77169776	     -1.68368935	     -0.32579120	      1.13956975	      0.05660429	    122.77826943	     -6.06638158	     -6.14020041	     89.61003982	      1.56399024	     17.26041782	    -13.76772072	      0.00000000	     93.75485689	    -10.72220912	     -1.96809228	     56.92245044	      0.99348418	      5.26703861	      9.44799168	      0.00000000	     -0.10204835	      0.96700322	      0.32514465	     -0.18951399	      1.28611429	      0.34546619	     -0.16765523	      2.35117164	      0.34546619	     -0.11663106	      2.35117164	      0.28450157	     -0.09476210	      1.97191297	      0.26418003	     -0.05831043	      1.49788799	      0.24385848	     -0.72892115	     10.93893386	      1.80835698	      0.00000000	      0.00000000	      0.00000000	      0.00000000	      0.00000001	     70.10500596	     -8.12149536	      6.39176748	     41.67090376	     57.91625858	      0.00000000	      4.62142550	     65.37969204	     -6.53578217	     -2.22756216	     41.85310165	     56.48598672	      0.00000000	      4.62142550
      0.04200000	    -62.70210580	     -3.87915458	     -1.55133589	     -0.32569349	      1.13980308	      0.05633248	    122.22805545	     -6.13538980	     -6.27909246	     88.21469076	      1.53963680	     17.36849428	    -13.71268536	      0.00000000	     94.27169935	    -10.62316253	     -1.59751067	     58.50857304	      1.02116724	      5.83019680	      9.68614940	      0.00000000	     -0.10284699	      0.97619952	      0.30643063	     -0.19099715	      1.29834536	      0.32558254	     -0.16896732	      2.37353152	      0.32558254	     -0.11754383	      2.37353152	      0.26812680	     -0.09550372	      1.99066606	      0.24897489	     -0.05876677	      1.51213306	      0.22982297	     -0.73462577	     11.04296422	      1.70427523	      0.00000000	      0.00000000	      0.00000000	      0.00000000	      0.00000001	     70.05718894	     -8.10763059	      6.05860390	     41.68442290	     57.78358472	      0.00000000	      4.63821525	     65.38358701	     -6.49176838	     -2.25201415	     41.71698295	     56.41465516	      0.00000000	      4.63821525
      0.05000000	    -62.66894668	     -3.74829264	     -1.05929161	     -0.32555165	      1.13996727	      0.05571781	    121.70174228	     -6.38681821	     -5.96567440	     86.78930892	      1.51475920	     17.66278997	    -13.31129471	      0.00000000	     94.74514321	    -10.14795924	     -1.52705073	     60.14901377	      1.04979833	      6.11293340	      9.38680348	      0.00000000	     -0.10326439	      0.95234097	      0.21477196	     -0.19177230	      1.26661349	      0.22819521	     -0.16965306	      2.31552184	      0.22819521	     -0.11802087	      2.31552184	      0.18792546	     -0.09589131	      1.94201371	      0.17450222	     -0.05900527	      1.47517617	      0.16107897	     -0.73760720	     10.77307155	      1.19449720	      0.00000000	      0.00000000	      0.00000000	      0.00000000	      0.00000001	     69.90029803	     -8.10985142	      5.93718138	     41.92953352	     57.53408185	      0.00000000	      4.65142339	     65.34476004	     -6.54002500	     -2.28389915	     41.81949950	     56.20281000	      0.00000000	      4.65142339
      0.05800000	    -62.63366023	     -3.64694160	     -0.65313530	     -0.32534721	      1.14018768	      0.05523890	    121.04978831	     -6.56543857	     -5.70201184	     85.16883547	      1.48647660	     18.00990771	    -12.71212099	      0.00000000	     95.28373445	     -9.74573761	     -1.37367736	     61.93377427	      1.08094828	      6.38432693	      8.89082188	      0.00000000	     -0.10292666	      0.93124094	      0.13859800	     -0.19114511	      1.23855046	      0.14726038	     -0.16909822	      2.26421923	      0.14726038	     -0.11763488	      2.26421923	      0.12127325	     -0.09557770	      1.89898653	      0.11261088	     -0.05881230	      1.44249222	      0.10394850	     -0.73519487	     10.53438380	      0.77084052	      0.00000000	      0.00000000	      0.00000000	      0.00000000	      0.00000001	     69.73215061	     -8.04962095	      5.67145036	     42.04567811	     57.21918134	      0.00000000	      4.66778900	     65.35085548	     -6.56203443	     -2.27370575	     41.77728800	     55.95417549	      0.00000000	      4.66778900
